<svg width="1835" height="307" viewBox="0 0 1835 307" fill="none" xmlns="http://www.w3.org/2000/svg">
<g clip-path="url(#clip0_2016_102)">
<path d="M168.96 216.76H28.48C3.21997 216.76 -9.49003 186.27 8.28997 168.33L124.36 51.22C156.88 18.44 201.16 0 247.34 0L76.52 172.93H212.71V173L168.96 216.75V216.76ZM163.15 133.84V133.91H299.34L128.52 306.84C174.7 306.84 218.97 288.4 251.5 255.62L367.56 138.51C385.34 120.57 372.63 90.08 347.37 90.08H206.89L163.14 133.83L163.15 133.84Z" fill="url(#paint0_linear_2016_102)"/>
<path d="M446.25 117.68H470.75V107.21C470.75 69.58 490.29 51.5 543.38 51.5V82.71C517.42 82.71 509.54 87.08 509.54 106.04V117.68H543.38V145.1H509.54V255.89H470.74V145.1H446.24V117.68H446.25Z" fill="#EDEDED"/>
<path d="M567.44 255.68V51.49H606.53V255.68H567.44Z" fill="#EDEDED"/>
<path d="M793.71 179.55C793.71 227.39 760.46 259.48 710.87 259.48C661.28 259.48 627.45 227.39 627.45 179.55C627.45 131.71 661.87 101.37 710.87 101.37C759.87 101.37 793.71 133.46 793.71 179.55ZM754.63 179.26C754.63 153.01 738.3 132.59 710.88 132.59C683.46 132.59 666.54 153.01 666.54 179.26C666.54 208.14 682.58 228.27 710.88 228.27C739.18 228.27 754.63 208.14 754.63 179.26Z" fill="#EDEDED"/>
<path d="M904.89 101.37V140.46C890.3 140.46 865.22 140.75 854.72 168.17V255.68H815.63V105.16H843.34L850.63 122.95C864.05 108.95 883.59 101.36 904.89 101.36V101.37Z" fill="#EDEDED"/>
<path d="M1069.49 195.3H955.14C959.52 216.01 974.68 228.26 997.44 228.26C1014.36 228.26 1027.77 223.3 1036.53 214.26L1058.41 238.76C1043.24 251.89 1022.24 259.47 997.45 259.47C949.03 259.47 914.9 227.38 914.9 181.59C914.9 135.8 949.32 101.37 995.12 101.37C1040.92 101.37 1075.34 136.37 1069.5 195.3H1069.49ZM1031.28 167.88C1028.07 145.42 1016.4 132.58 995.11 132.58C973.82 132.58 959.23 145.12 955.15 167.88H1031.28Z" fill="#EDEDED"/>
<path d="M1093.99 255.68V105.16H1121.7L1128.99 123.25C1142.41 108.96 1161.95 101.37 1183.25 101.37C1225.26 101.37 1243.63 127.91 1242.47 183.63V255.68H1203.67V183.63C1203.67 161.17 1203.38 132.58 1175.38 132.58C1161.09 132.58 1143.29 140.46 1133.08 168.17V255.68H1093.99Z" fill="#EDEDED"/>
<path d="M1286.49 105.16V51.49H1325.29V105.16H1359.13V132.58H1325.29V204.92C1325.29 223.88 1333.17 228.26 1359.13 228.26V259.47C1306.04 259.47 1286.5 241.38 1286.5 203.76V132.58H1262V105.16H1286.5H1286.49Z" fill="#EDEDED"/>
<path d="M1386.69 255.68V105.16H1425.78V255.68H1386.69Z" fill="#EDEDED"/>
<path d="M1386.43 51.6499H1425.78L1425.77 84.5999H1386.25L1386.43 51.6499Z" fill="#EDEDED"/>
<path d="M1453.48 255.68V105.16H1481.19L1488.48 123.25C1501.9 108.96 1521.44 101.37 1542.74 101.37C1584.75 101.37 1603.12 127.91 1601.96 183.63V255.68H1563.16V183.63C1563.16 161.17 1562.87 132.58 1534.87 132.58C1520.58 132.58 1502.78 140.46 1492.57 168.17V255.68H1453.48Z" fill="#EDEDED"/>
<path d="M1785.49 179.55C1785.49 227.39 1752.24 259.48 1702.65 259.48C1653.06 259.48 1619.23 227.39 1619.23 179.55C1619.23 131.71 1653.65 101.37 1702.65 101.37C1751.65 101.37 1785.49 133.46 1785.49 179.55ZM1746.4 179.26C1746.4 153.01 1730.07 132.59 1702.65 132.59C1675.23 132.59 1658.31 153.01 1658.31 179.26C1658.31 208.14 1674.35 228.27 1702.65 228.27C1730.95 228.27 1746.4 208.14 1746.4 179.26Z" fill="#EDEDED"/>
<path d="M1834.8 82.09C1834.8 96.49 1823.1 108.04 1808.25 108.04C1793.4 108.04 1781.55 96.49 1781.55 82.09C1781.55 67.69 1793.4 56.29 1808.25 56.29C1823.1 56.29 1834.8 67.84 1834.8 82.09ZM1789.51 82.24C1789.51 93.04 1797.46 101.59 1808.26 101.59C1819.06 101.59 1827.01 93.04 1827.01 82.09C1827.01 71.14 1819.06 62.74 1808.11 62.74C1797.16 62.74 1789.51 71.44 1789.51 82.24ZM1804.96 94.39H1797.61V70.54C1799.26 70.24 1803.16 69.79 1808.11 69.79C1813.51 69.79 1815.91 70.54 1817.71 71.59C1819.21 72.64 1820.26 74.44 1820.26 76.84C1820.26 79.24 1818.01 81.34 1814.71 82.24V82.54C1817.41 83.44 1818.91 85.24 1819.66 88.69C1820.41 92.14 1820.86 93.49 1821.31 94.39H1813.06C1812.31 93.49 1811.86 91.39 1811.41 89.29C1810.96 86.89 1809.76 85.69 1807.36 85.69H1804.96V94.39ZM1805.25 80.74H1807.35C1810.05 80.74 1811.85 79.69 1811.85 77.89C1811.85 75.94 1810.2 74.89 1807.65 74.89C1806.75 74.89 1805.85 75.04 1805.25 75.04V80.74Z" fill="#EDEDED"/>
</g>
<defs>
<linearGradient id="paint0_linear_2016_102" x1="-3.38491e-05" y1="153.43" x2="375.86" y2="153.43" gradientUnits="userSpaceOnUse">
<stop offset="0.28" stop-color="#9B29FF"/>
<stop offset="1" stop-color="#F15A24"/>
</linearGradient>
<clipPath id="clip0_2016_102">
<rect width="1834.8" height="306.85" fill="white"/>
</clipPath>
</defs>
</svg>
