<svg width="1835" height="307" viewBox="0 0 1835 307" fill="none" xmlns="http://www.w3.org/2000/svg">
<path d="M446.25 120.31H470.75V109.84C470.75 72.2099 490.29 54.1299 543.38 54.1299V85.3399C517.42 85.3399 509.54 89.7099 509.54 108.67V120.31H543.38V147.73H509.54V258.52H470.74V147.73H446.24V120.31H446.25Z" fill="#141414"/>
<path d="M567.44 258.31V54.1299H606.53V258.32H567.44V258.31Z" fill="#141414"/>
<path d="M793.71 182.18C793.71 230.02 760.46 262.11 710.87 262.11C661.28 262.11 627.45 230.02 627.45 182.18C627.45 134.34 661.87 104 710.87 104C759.87 104 793.71 136.09 793.71 182.18ZM754.63 181.89C754.63 155.64 738.3 135.22 710.88 135.22C683.46 135.22 666.54 155.64 666.54 181.89C666.54 210.77 682.58 230.9 710.88 230.9C739.18 230.9 754.63 210.77 754.63 181.89Z" fill="#141414"/>
<path d="M904.89 104.01V143.1C890.3 143.1 865.22 143.39 854.72 170.81V258.32H815.63V107.8H843.34L850.63 125.59C864.05 111.59 883.59 104 904.89 104V104.01Z" fill="#141414"/>
<path d="M1069.49 197.93H955.14C959.52 218.64 974.68 230.89 997.44 230.89C1014.36 230.89 1027.77 225.93 1036.53 216.89L1058.41 241.39C1043.24 254.52 1022.24 262.1 997.45 262.1C949.03 262.1 914.9 230.01 914.9 184.22C914.9 138.43 949.32 104 995.12 104C1040.92 104 1075.34 139 1069.5 197.93H1069.49ZM1031.28 170.51C1028.07 148.05 1016.4 135.21 995.11 135.21C973.82 135.21 959.23 147.75 955.15 170.51H1031.28Z" fill="#141414"/>
<path d="M1093.99 258.31V107.8H1121.7L1128.99 125.89C1142.41 111.6 1161.95 104.01 1183.25 104.01C1225.26 104.01 1243.63 130.55 1242.47 186.27V258.32H1203.67V186.27C1203.67 163.81 1203.38 135.22 1175.38 135.22C1161.09 135.22 1143.29 143.1 1133.08 170.81V258.32H1093.99V258.31Z" fill="#141414"/>
<path d="M1286.49 107.8V54.1299H1325.29V107.8H1359.13V135.22H1325.29V207.56C1325.29 226.52 1333.17 230.9 1359.13 230.9V262.11C1306.04 262.11 1286.5 244.02 1286.5 206.4V135.22H1262V107.8H1286.5H1286.49Z" fill="#141414"/>
<path d="M1386.69 258.31V107.8H1425.78V258.32H1386.69V258.31Z" fill="#141414"/>
<path d="M1386.43 54.2898H1425.78L1425.77 87.2398H1386.25L1386.43 54.2898Z" fill="#141414"/>
<path d="M1453.48 258.31V107.8H1481.19L1488.48 125.89C1501.9 111.6 1521.44 104.01 1542.74 104.01C1584.75 104.01 1603.12 130.55 1601.96 186.27V258.32H1563.16V186.27C1563.16 163.81 1562.87 135.22 1534.87 135.22C1520.58 135.22 1502.78 143.1 1492.57 170.81V258.32H1453.48V258.31Z" fill="#141414"/>
<path d="M1785.49 182.18C1785.49 230.02 1752.24 262.11 1702.65 262.11C1653.06 262.11 1619.23 230.02 1619.23 182.18C1619.23 134.34 1653.65 104 1702.65 104C1751.65 104 1785.49 136.09 1785.49 182.18ZM1746.4 181.89C1746.4 155.64 1730.07 135.22 1702.65 135.22C1675.23 135.22 1658.31 155.64 1658.31 181.89C1658.31 210.77 1674.35 230.9 1702.65 230.9C1730.95 230.9 1746.4 210.77 1746.4 181.89Z" fill="#141414"/>
<path d="M1834.8 84.7299C1834.8 99.1299 1823.1 110.68 1808.25 110.68C1793.4 110.68 1781.55 99.1299 1781.55 84.7299C1781.55 70.3299 1793.4 58.9299 1808.25 58.9299C1823.1 58.9299 1834.8 70.4799 1834.8 84.7299ZM1789.51 84.8799C1789.51 95.6799 1797.46 104.23 1808.26 104.23C1819.06 104.23 1827.01 95.6799 1827.01 84.7299C1827.01 73.7799 1819.06 65.3799 1808.11 65.3799C1797.16 65.3799 1789.51 74.0799 1789.51 84.8799ZM1804.96 97.0299H1797.61V73.1799C1799.26 72.8799 1803.16 72.4299 1808.11 72.4299C1813.51 72.4299 1815.91 73.1799 1817.71 74.2299C1819.21 75.2799 1820.26 77.0799 1820.26 79.4799C1820.26 81.8799 1818.01 83.9799 1814.71 84.8799V85.1799C1817.41 86.0799 1818.91 87.8799 1819.66 91.3299C1820.41 94.7799 1820.86 96.1299 1821.31 97.0299H1813.06C1812.31 96.1299 1811.86 94.0299 1811.41 91.9299C1810.96 89.5299 1809.76 88.3299 1807.36 88.3299H1804.96V97.0299ZM1805.25 83.3799H1807.35C1810.05 83.3799 1811.85 82.3299 1811.85 80.5299C1811.85 78.5799 1810.2 77.5299 1807.65 77.5299C1806.75 77.5299 1805.85 77.6799 1805.25 77.6799V83.3799Z" fill="#141414"/>
<path d="M168.96 216.76H28.48C3.21997 216.76 -9.49003 186.27 8.28997 168.33L124.36 51.22C156.88 18.44 201.16 0 247.34 0L76.52 172.93H212.71V173L168.96 216.75V216.76ZM163.15 133.84V133.91H299.34L128.52 306.84C174.7 306.84 218.97 288.4 251.5 255.62L367.56 138.51C385.34 120.57 372.63 90.08 347.37 90.08H206.89L163.14 133.83L163.15 133.84Z" fill="url(#paint0_linear_2016_121)"/>
<defs>
<linearGradient id="paint0_linear_2016_121" x1="-3.38491e-05" y1="153.43" x2="375.86" y2="153.43" gradientUnits="userSpaceOnUse">
<stop offset="0.28" stop-color="#9B29FF"/>
<stop offset="1" stop-color="#F15A24"/>
</linearGradient>
</defs>
</svg>
